<svg xmlns="http://www.w3.org/2000/svg" viewBox="0 0 153.54 138.56"><defs><style>.cls-1{fill:#e6e7e8;opacity:0.42;}.cls-2{fill:#fff;}</style></defs><title>AppBorderAsset 4</title><g id="Layer_2" data-name="Layer 2"><g id="Assets"><path class="cls-1" d="M15.46,57.33C20,53.82,25,50.63,28.11,45.83c2.47-3.78,3.59-8.13,4.75-12.45q-.77,1-1.65,2c-4.16,4.62-10,7.21-15.48,10.22C1.56,53.47-5.84,74,5.64,86.76,2.37,76.64,6.74,64.08,15.46,57.33Z"/><path class="cls-1" d="M45.22,13.86c10.3-7.56,24.66-8.76,35.16-.94C87.28,18,96.86,19.5,106,16.82c.27-.08.55-.13.82-.21A29.4,29.4,0,0,1,92.75,8.82C82.78-1.31,67.18-2.42,54.88,4A31.59,31.59,0,0,0,41,17.36c-.08.14-.15.29-.22.43A34.72,34.72,0,0,1,45.22,13.86Z"/><path class="cls-1" d="M152.25,50.86a25,25,0,0,0-.5-17.16c-4.44-11-16-16.62-27.41-16.71a23.41,23.41,0,0,1,13.28,10.24,23,23,0,0,1,2.89,15.56c-1.06,5.71-4.8,10.66-5.08,16.56-.39,8,5.77,14.8,7.71,22.59,4.47,18-14.87,33-31.41,32.74A31.3,31.3,0,0,0,92.53,121c-11.06,8-20.18,17.65-35.19,14.82a26.71,26.71,0,0,1-14.79-8.24c-3.74-4.13-4.38-9.37-6.63-14.28a21.49,21.49,0,0,0-8.3-9.33c-.68-.41-1.38-.77-2.09-1.12a23,23,0,0,1,2.82,6.22c1.59,5.63,1.41,11.37,4.73,16.41a29,29,0,0,0,14.48,11.3c15.63,5.53,27-3.25,40.21-10a34,34,0,0,1,21.65-3.62c17.69,3.06,40.93-9.83,39.13-29.87-.78-8.68-6.26-17-4.51-25.51C145.33,61.5,150.17,56.81,152.25,50.86Z"/><path class="cls-2" d="M80.09,16c6.51,4.84,15.56,6.22,24.2,3.69,10.72-3.14,23.83-.28,29.85,9.83a21.68,21.68,0,0,1,2.72,14.69c-1,5.39-4.53,10.06-4.8,15.64-.36,7.57,5.45,14,7.28,21.33,4.22,17-14,31.18-29.65,30.91a29.62,29.62,0,0,0-18.14,6c-10.44,7.59-19,16.66-33.23,14a25.22,25.22,0,0,1-14-7.78c-3.54-3.89-4.14-8.85-6.27-13.48a20.21,20.21,0,0,0-7.84-8.81c-3.89-2.37-8.5-3.37-12.39-5.75C3.6,87.57,7,67.13,18.78,58c4.28-3.31,9-6.33,12-10.85,3.31-5.07,4-11.21,6-16.83A27.44,27.44,0,0,1,46.89,16.93C56.61,9.79,70.17,8.66,80.09,16Z"/></g></g></svg>