<svg xmlns="http://www.w3.org/2000/svg" viewBox="0 0 266.97 146.63"><defs><style>.cls-1{fill:#f4f4f4;}.cls-2{fill:#e6e7e8;opacity:0.42;}.cls-3{fill:#4284f3;}.cls-4{fill:#34a753;}.cls-5{fill:#fabb05;}.cls-6{fill:#e94335;}</style></defs><title>logoAsset 2</title><g id="Layer_2" data-name="Layer 2"><g id="Layer_1-2" data-name="Layer 1"><path class="cls-1" d="M240.71,6.15A36.67,36.67,0,0,1,236.63,0H40c.52,6.13.43,12.14-1.86,17.82-3.84,9.53-12.81,15.52-17.81,24.29a39.93,39.93,0,0,0-4.16,27.21c4.35,21.23,25.42,34.14,46,35.17,16.56.83,31.47,8.71,39.86,21.07,12.79,18.84,37.05,25.09,58.29,18.56,10.33-3.18,19.1-8.55,25.81-17.08s11.75-18.84,20.58-25.65c7.89-6.08,17.9-8.47,27.35-11.64,26.1-8.76,44.32-42.26,24.8-66.1C253.46,17.15,246.05,12.63,240.71,6.15Z"/><path class="cls-2" d="M237.54,16.46A38.32,38.32,0,0,1,232.35,0H27.87C22.25,6.84,14.08,11.27,8.54,18.23A41,41,0,0,0,0,45.14C1.12,67.33,20.43,83.73,41.08,88c16.66,3.45,30.52,13.77,37.08,27.62,10,21.1,33.6,31.26,56.14,28,11-1.59,20.7-5.65,28.84-13.24S178,113.11,188,107.61c9-4.92,19.48-5.77,29.55-7.49C245.39,95.34,269.13,64.26,253.1,37,248.73,29.62,241.93,23.87,237.54,16.46Z"/><path class="cls-3" d="M84.16,47.52c.94-1.93,1.89-3.85,2.84-5.78q2.59-5.3,5.22-10.59c.1-.2.1-.34-.09-.45a1.59,1.59,0,0,1-.72-1.62c0-3.69,0-7.39,0-11.09a3.09,3.09,0,0,1,2.36-3.15,2.9,2.9,0,0,1,.83-.1h2.95c.2,0,.31,0,.31-.27,0-2.08,0-7.31,0-9.39h9c0,2,0,7.22,0,9.26,0,.12-.06.27.06.37l3.17,0a3.1,3.1,0,0,1,3,1.87,2.81,2.81,0,0,1,.28,1.2v12c0,.18,0,.34-.19.44s0,.21,0,.31c.91,1.83,1.81,3.67,2.72,5.51l2.75,5.57,2.5,5.07c1,1.94,1.91,3.87,2.86,5.81l2.64,5.34a4.4,4.4,0,0,0,.42.84c0,.1.08.21.13.31l3.55,7.18-.44,0h-7.95c-.49-.82-.83-1.72-1.26-2.57-.61-1.18-1.24-2.37-1.8-3.57-.88-1.87-1.85-3.69-2.74-5.55S114.82,51,114,49.3s-1.85-3.71-2.75-5.58-1.77-3.57-2.64-5.36l-1.4-2.87L105.52,37a12.7,12.7,0,0,1-1.61,1.32,3.13,3.13,0,0,1-3.45-.21c-.7-.59-1.4-1.18-2.08-1.8-.24-.22-.28-.07-.36.11q-1.33,2.68-2.65,5.37t-2.74,5.58a1.19,1.19,0,0,0-.08.2H84.16ZM97.41,25a5.09,5.09,0,1,0,5.08-5.1A5.06,5.06,0,0,0,97.41,25Z"/><path class="cls-4" d="M130.73,66.16,127.18,59c-.05-.1-.09-.21-.13-.31h20.2l.44,0a9.34,9.34,0,0,0,.05-1.83.93.93,0,0,0-.05-.59h0a.78.78,0,0,0-.43,0H128.19a.94.94,0,0,1-.47,0V53.74q0-7.31,0-14.6V38.7c.16,0,.31,0,.47,0h30.95v7.49H135.78l-.48,0a9.31,9.31,0,0,0-.05,1.83.93.93,0,0,0,.05.59h0a.78.78,0,0,0,.43,0H154.8a1.06,1.06,0,0,1,.47,0V51.1q0,7.31,0,14.61c0,.15,0,.29,0,.44-.16,0-.31,0-.47,0H131.17Z"/><path class="cls-5" d="M159.14,46.17V38.68H184.9c.13,0,.25,0,.37,0,0,2.35,0,4.71,0,7.06,0,.33-.07.43-.42.43h-9.09l-.44,0c-.11.08-.06.2-.06.3V58.33c0,.1,0,.23.06.31l.44,0c3,0,6.06,0,9.09,0,.35,0,.42.11.42.43,0,2.36,0,4.71,0,7.07l-.29,0H158.09c-.29,0-.34-.1-.34-.36,0-2.27,0-4.54,0-6.82a.75.75,0,0,1,.05-.36c3.22,0,6.45,0,9.68,0,.33,0,.26-.2.26-.38V47.5c0-.32,0-.64,0-1s-.07-.36-.37-.36h-8.24Z"/><path class="cls-4" d="M205,22c-.23.95-.46,1.9-.68,2.86-.64,2.8-1.27,5.59-1.91,8.39l-2,8.75q-1,4.61-2.08,9.21l-1.68,7.37c-.67,3-1.33,6-2,8.93-.55,2.46-1.13,4.93-1.68,7.4,0,.2-.11.23-.28.23q-3.19,0-6.41,0c-.27,0-.28-.15-.23-.32.46-1.74.8-3.5,1.22-5.25s.78-3.29,1.12-4.94.72-3.16,1.05-4.74c.21-1,.47-2,.7-3,.32-1.38.58-2.78.92-4.15.29-1.2.55-2.41.83-3.62q.66-2.89,1.31-5.81c.26-1.21.55-2.41.82-3.62.32-1.39.63-2.79,1-4.18s.59-2.62.9-3.93c.24-1.07.45-2.14.71-3.21s.45-2,.67-2.95c.27-1.16.54-2.32.8-3.48.07-.11.18-.11.29-.11h6.39C204.89,21.79,205,21.75,205,22Z"/><path class="cls-6" d="M119.69,81.2h-3.33l3.3,3.4a.9.9,0,0,1,0,.43c0,1,0,1.9,0,2.85a2.15,2.15,0,0,1,0,.76c-1.2,0-2.41,0-3.61,0a.73.73,0,0,1-.57-.23c-2.31-2.32-4.63-4.63-6.93-7a.76.76,0,0,0-.64-.26c-1,0-2,0-3,0-.13.11-.06.25-.06.38v6.6c0,.15,0,.3,0,.44H99.36a2.58,2.58,0,0,1,0-.29q0-9.9,0-19.8c0-.3.11-.34.36-.34,1.61,0,3.21,0,4.82,0,.31,0,.39.08.39.39,0,2.2,0,4.41,0,6.62,0,.13-.06.27.06.38h0c.09.07.19,0,.28,0h8.57c.1,0,.2,0,.29,0h0a5.26,5.26,0,0,0,0-1.77h0a.68.68,0,0,0-.4,0h-6.54a.9.9,0,0,1-.43,0v-5.5l.4,0c4.07,0,8.13,0,12.2,0,.36,0,.41.12.41.44q0,6.09,0,12.19C119.71,81,119.7,81.08,119.69,81.2Z"/><path class="cls-6" d="M126.78,73.83a13.07,13.07,0,0,0,0,1.77c.13.09.26,0,.4,0h6.51c.47,0,.47,0,.47.49v2.31l0,2.76h-7c-.3,0-.4,0-.39.37,0,2.23,0,4.47,0,6.7,0,.29-.06.37-.36.37q-2.43,0-4.86,0c-.32,0-.38-.09-.38-.39q0-9.78,0-19.56c0-.15,0-.29,0-.44s.29,0,.44,0h19.56l.41,0q0,10,0,20c0,.32-.08.41-.41.4-1.7,0-3.41,0-5.12,0a1.06,1.06,0,0,1,0-.47V74.27c0-.14.05-.29,0-.42h0c-.08-.08-.18,0-.28,0H127C127,73.79,126.85,73.76,126.78,73.83Z"/><path class="cls-6" d="M163.45,68.25c0,1.83,0,3.66,0,5.5a1.12,1.12,0,0,1-.48,0h-13.9c-.14,0-.29-.05-.42,0h0c-.08.08-.05.18-.05.28v8.64c0,.08,0,.18,0,.25l.44,0h14c.31,0,.42,0,.41.39,0,1.61,0,3.22,0,4.83,0,.31-.09.38-.39.38h-20c0-.14,0-.29,0-.44q0-9.76,0-19.55c0-.35.09-.44.44-.44H163C163.16,68.22,163.31,68.24,163.45,68.25Z"/><path class="cls-6" d="M170.45,88.64H165c0-.12,0-.24,0-.36q0-9.86,0-19.69c0-.28.05-.38.36-.38q2.43,0,4.86,0c.28,0,.37.07.37.37,0,.92,0,1.84,0,2.76,0,.06-.11.21.09.2l3.34-3.32h7.46c.13,0,.29-.07.4.08l-.35.32q-3.87,3.88-7.76,7.76c-.25.25-.29.37,0,.65,3.76,3.73,7.51,7.49,11.26,11.24l.27.28c-.08.13-.19.08-.28.08h-7.33a.46.46,0,0,1-.38-.15l-6.61-6.62,0-.05h0a.73.73,0,0,0,0,.36v6A.88.88,0,0,1,170.45,88.64Z"/><path class="cls-3" d="M81.36,53.14l2.64,0c.21,0,.3.05.27.27V63.87c0,.16,0,.31,0,.47-.26.54-.54,1.07-.8,1.61a.31.31,0,0,1-.32.23H74.94Z"/><path class="cls-6" d="M97.41,25a5.09,5.09,0,1,1,5.09,5.1A5.06,5.06,0,0,1,97.41,25Z"/><path class="cls-4" d="M207.39,0h-22.3a1.22,1.22,0,0,0,.45.73q22.2,22.16,44.39,44.33c.62.62.62.91,0,1.53q-22.2,22.16-44.37,44.34a3.54,3.54,0,0,0-.55.62h22.68L252.53,46.7l.43-.43c.09-.1.16-.22.27-.36-.18-.2-.32-.38-.48-.54Z"/><path class="cls-6" d="M105.61,48c0-.34-.06-.45-.43-.45-4.06,0-8.13,0-12.19,0H70.15c-.33,0-.45,0-.45.43,0,1.59,0,3.19,0,4.79,0,.3.07.38.38.38h6.49l4.79,0,2.64,0c.21,0,.3.05.27.27V63.87c0,.16,0,.31,0,.47s0,.29,0,.44v15l5.57,5.57q0-15.9,0-31.81c0-.13-.07-.29.06-.41l.44,0h14.83c.32,0,.44-.05.43-.41C105.59,51.14,105.59,49.55,105.61,48Z"/><path class="cls-4" d="M96,91.55a3.54,3.54,0,0,0-.55-.62Q73.24,68.76,51,46.59c-.62-.62-.62-.91,0-1.53Q73.26,22.9,95.43.73A1.22,1.22,0,0,0,95.88,0H73.57Q50.91,22.7,28.22,45.37c-.16.16-.3.34-.48.54.11.14.18.26.27.36s.29.29.43.43L73.28,91.55Z"/></g></g></svg>